<svg style="display: none">
    <symbol id="phone" viewBox="0 0 18 18" fill="none" xmlns="http://www.w3.org/2000/svg">
        <path d="M3.62 7.79C5.06 10.62 7.38 12.93 10.21 14.38L12.41 12.18C12.68 11.91 13.08 11.821 13.43 11.94C14.55 12.311 15.76 12.51 17 12.51C17.55 12.51 18 12.96 18 13.51V17C18 17.55 17.55 18 17 18C7.61 18 0 10.391 0 1C0 0.45 0.45 0 1 0H4.5C5.05 0 5.5 0.45 5.5 1C5.5 2.25 5.7 3.45 6.07 4.57C6.18 4.92 6.1 5.31 5.82 5.59L3.62 7.79Z" fill="#5BC12C"/>
    </symbol>
    <symbol id="logo" viewBox="0 0 46 46" fill="none" xmlns="http://www.w3.org/2000/svg">
        <path d="M44 23C44 34.598 34.598 44 23 44C11.402 44 2 34.598 2 23C2 11.402 11.402 2 23 2C34.598 2 44 11.402 44 23Z" stroke="#2D9CDB" stroke-width="4"/>
        <path d="M13.462 19.64C14.518 19.64 15.34 19.904 15.928 20.432C16.516 20.96 16.81 21.824 16.81 23.024V29H14.128V23.582C14.128 22.43 13.552 21.854 12.4 21.854C12.124 21.854 11.842 21.896 11.554 21.98C11.266 22.064 11.044 22.166 10.888 22.286L10.852 29H8.18799V16.292H10.888V20.306C11.716 19.862 12.574 19.64 13.462 19.64Z" fill="white"/>
        <path d="M19.0659 26.462H21.6759V29H19.0659V26.462Z" fill="white"/>
        <path d="M24.4111 29V15.9922H26.9687L30.5723 26.0557L34.2812 15.9922H36.5664V29H34.8437V18.418L31.2578 28.1299H29.4736L25.9932 18.3916V29H24.4111Z" fill="white"/>
    </symbol>
    <symbol id="drop" viewBox="0 0 9 6" fill="none" xmlns="http://www.w3.org/2000/svg">
        <path d="M4.43433 0L8.43433 6H0.434326L4.43433 0Z" fill="#F2994A"/>
    </symbol>
</svg>
